<mxfile host="app.diagrams.net" agent="Mozilla/5.0 (Windows NT 10.0; Win64; x64) AppleWebKit/537.36 (KHTML, like Gecko) Chrome/131.0.0.0 Safari/537.36" version="26.0.3">
  <diagram name="Seite-1" id="PbYd9qkl-mRTcmLGBThO">
    <mxGraphModel dx="1134" dy="620" grid="1" gridSize="10" guides="1" tooltips="1" connect="1" arrows="1" fold="1" page="1" pageScale="1" pageWidth="827" pageHeight="1169" math="0" shadow="0">
      <root>
        <mxCell id="0" />
        <mxCell id="1" parent="0" />
        <mxCell id="P8xasDIldp5LhnLOjuPv-53" value="MEM i&lt;div&gt;READ&lt;/div&gt;&lt;div&gt;PORT 1&lt;/div&gt;&lt;div&gt;&lt;br&gt;&lt;/div&gt;&lt;div&gt;&lt;span style=&quot;color: rgba(0, 0, 0, 0); font-family: monospace; font-size: 0px; text-align: start; text-wrap: nowrap; background-color: initial;&quot;&gt;%3CmxGraphModel%3E%3Croot%3E%3CmxCell%20id%3D%220%22%2F%3E%3CmxCell%20id%3D%221%22%20parent%3D%220%22%2F%3E%3CmxCell%20id%3D%222%22%20value%3D%22MEM%20i%26lt%3Bdiv%26gt%3BWRITE%26lt%3B%2Fdiv%26gt%3B%26lt%3Bdiv%26gt%3BPORT%201%26lt%3B%2Fdiv%26gt%3B%26lt%3Bdiv%26gt%3B%26lt%3Bbr%26gt%3B%26lt%3B%2Fdiv%26gt%3B%26lt%3Bdiv%26gt%3B(BRAM)%26lt%3B%2Fdiv%26gt%3B%22%20style%3D%22rounded%3D1%3BwhiteSpace%3Dwrap%3Bhtml%3D1%3B%22%20vertex%3D%221%22%20parent%3D%221%22%3E%3CmxGeometry%20x%3D%22810%22%20y%3D%22180%22%20width%3D%22120%22%20height%3D%22210%22%20as%3D%22geometry%22%2F%3E%3C%2FmxCell%3E%3C%2Froot%3E%3C%2FmxGraphModel%3E&lt;/span&gt;(BRAM)&lt;/div&gt;" style="rounded=1;whiteSpace=wrap;html=1;" vertex="1" parent="1">
          <mxGeometry x="450" y="790" width="120" height="220" as="geometry" />
        </mxCell>
        <mxCell id="P8xasDIldp5LhnLOjuPv-54" value="MEM i&lt;div&gt;READ&lt;/div&gt;&lt;div&gt;PORT 1&lt;/div&gt;&lt;div&gt;&lt;br&gt;&lt;/div&gt;&lt;div&gt;&lt;span style=&quot;color: rgba(0, 0, 0, 0); font-family: monospace; font-size: 0px; text-align: start; text-wrap: nowrap; background-color: initial;&quot;&gt;%3CmxGraphModel%3E%3Croot%3E%3CmxCell%20id%3D%220%22%2F%3E%3CmxCell%20id%3D%221%22%20parent%3D%220%22%2F%3E%3CmxCell%20id%3D%222%22%20value%3D%22MEM%20i%26lt%3Bdiv%26gt%3BWRITE%26lt%3B%2Fdiv%26gt%3B%26lt%3Bdiv%26gt%3BPORT%201%26lt%3B%2Fdiv%26gt%3B%26lt%3Bdiv%26gt%3B%26lt%3Bbr%26gt%3B%26lt%3B%2Fdiv%26gt%3B%26lt%3Bdiv%26gt%3B(BRAM)%26lt%3B%2Fdiv%26gt%3B%22%20style%3D%22rounded%3D1%3BwhiteSpace%3Dwrap%3Bhtml%3D1%3B%22%20vertex%3D%221%22%20parent%3D%221%22%3E%3CmxGeometry%20x%3D%22810%22%20y%3D%22180%22%20width%3D%22120%22%20height%3D%22210%22%20as%3D%22geometry%22%2F%3E%3C%2FmxCell%3E%3C%2Froot%3E%3C%2FmxGraphModel%3E&lt;/span&gt;(BRAM)&lt;/div&gt;" style="rounded=1;whiteSpace=wrap;html=1;" vertex="1" parent="1">
          <mxGeometry x="440" y="800" width="120" height="220" as="geometry" />
        </mxCell>
        <mxCell id="P8xasDIldp5LhnLOjuPv-55" value="CONTROLLER" style="rounded=1;whiteSpace=wrap;html=1;" vertex="1" parent="1">
          <mxGeometry x="1260" y="850" width="120" height="120" as="geometry" />
        </mxCell>
        <mxCell id="P8xasDIldp5LhnLOjuPv-56" value="MEM i&lt;div&gt;READ&lt;/div&gt;&lt;div&gt;PORT 1&lt;/div&gt;&lt;div&gt;&lt;br&gt;&lt;/div&gt;&lt;div&gt;&lt;span style=&quot;color: rgba(0, 0, 0, 0); font-family: monospace; font-size: 0px; text-align: start; text-wrap: nowrap; background-color: initial;&quot;&gt;%3CmxGraphModel%3E%3Croot%3E%3CmxCell%20id%3D%220%22%2F%3E%3CmxCell%20id%3D%221%22%20parent%3D%220%22%2F%3E%3CmxCell%20id%3D%222%22%20value%3D%22MEM%20i%26lt%3Bdiv%26gt%3BWRITE%26lt%3B%2Fdiv%26gt%3B%26lt%3Bdiv%26gt%3BPORT%201%26lt%3B%2Fdiv%26gt%3B%26lt%3Bdiv%26gt%3B%26lt%3Bbr%26gt%3B%26lt%3B%2Fdiv%26gt%3B%26lt%3Bdiv%26gt%3B(BRAM)%26lt%3B%2Fdiv%26gt%3B%22%20style%3D%22rounded%3D1%3BwhiteSpace%3Dwrap%3Bhtml%3D1%3B%22%20vertex%3D%221%22%20parent%3D%221%22%3E%3CmxGeometry%20x%3D%22810%22%20y%3D%22180%22%20width%3D%22120%22%20height%3D%22210%22%20as%3D%22geometry%22%2F%3E%3C%2FmxCell%3E%3C%2Froot%3E%3C%2FmxGraphModel%3E&lt;/span&gt;(BRAM)&lt;/div&gt;" style="rounded=1;whiteSpace=wrap;html=1;" vertex="1" parent="1">
          <mxGeometry x="430" y="810" width="120" height="220" as="geometry" />
        </mxCell>
        <mxCell id="P8xasDIldp5LhnLOjuPv-57" value="MEM&lt;div&gt;READ&lt;/div&gt;&lt;div&gt;PORT 1&lt;/div&gt;&lt;div&gt;&lt;br&gt;&lt;/div&gt;&lt;div&gt;&lt;span style=&quot;color: rgba(0, 0, 0, 0); font-family: monospace; font-size: 0px; text-align: start; text-wrap: nowrap; background-color: initial;&quot;&gt;%3CmxGraphModel%3E%3Croot%3E%3CmxCell%20id%3D%220%22%2F%3E%3CmxCell%20id%3D%221%22%20parent%3D%220%22%2F%3E%3CmxCell%20id%3D%222%22%20value%3D%22MEM%20i%26lt%3Bdiv%26gt%3BWRITE%26lt%3B%2Fdiv%26gt%3B%26lt%3Bdiv%26gt%3BPORT%201%26lt%3B%2Fdiv%26gt%3B%26lt%3Bdiv%26gt%3B%26lt%3Bbr%26gt%3B%26lt%3B%2Fdiv%26gt%3B%26lt%3Bdiv%26gt%3B(BRAM)%26lt%3B%2Fdiv%26gt%3B%22%20style%3D%22rounded%3D1%3BwhiteSpace%3Dwrap%3Bhtml%3D1%3B%22%20vertex%3D%221%22%20parent%3D%221%22%3E%3CmxGeometry%20x%3D%22810%22%20y%3D%22180%22%20width%3D%22120%22%20height%3D%22210%22%20as%3D%22geometry%22%2F%3E%3C%2FmxCell%3E%3C%2Froot%3E%3C%2FmxGraphModel%3E&lt;/span&gt;(BRAM)&lt;/div&gt;" style="rounded=1;whiteSpace=wrap;html=1;" vertex="1" parent="1">
          <mxGeometry x="420" y="820" width="120" height="220" as="geometry" />
        </mxCell>
        <mxCell id="P8xasDIldp5LhnLOjuPv-58" value="HASH" style="rounded=1;whiteSpace=wrap;html=1;" vertex="1" parent="1">
          <mxGeometry x="280" y="860" width="80" height="80" as="geometry" />
        </mxCell>
        <mxCell id="P8xasDIldp5LhnLOjuPv-59" value="HASH" style="rounded=1;whiteSpace=wrap;html=1;" vertex="1" parent="1">
          <mxGeometry x="270" y="870" width="80" height="80" as="geometry" />
        </mxCell>
        <mxCell id="P8xasDIldp5LhnLOjuPv-60" value="HASH" style="rounded=1;whiteSpace=wrap;html=1;" vertex="1" parent="1">
          <mxGeometry x="260" y="880" width="80" height="80" as="geometry" />
        </mxCell>
        <mxCell id="P8xasDIldp5LhnLOjuPv-61" value="HASH" style="rounded=1;whiteSpace=wrap;html=1;" vertex="1" parent="1">
          <mxGeometry x="250" y="890" width="80" height="80" as="geometry" />
        </mxCell>
        <mxCell id="P8xasDIldp5LhnLOjuPv-62" value="MEM i&lt;div&gt;READ&lt;/div&gt;&lt;div&gt;PORT 1&lt;/div&gt;&lt;div&gt;&lt;br&gt;&lt;/div&gt;&lt;div&gt;&lt;span style=&quot;color: rgba(0, 0, 0, 0); font-family: monospace; font-size: 0px; text-align: start; text-wrap: nowrap; background-color: initial;&quot;&gt;%3CmxGraphModel%3E%3Croot%3E%3CmxCell%20id%3D%220%22%2F%3E%3CmxCell%20id%3D%221%22%20parent%3D%220%22%2F%3E%3CmxCell%20id%3D%222%22%20value%3D%22MEM%20i%26lt%3Bdiv%26gt%3BWRITE%26lt%3B%2Fdiv%26gt%3B%26lt%3Bdiv%26gt%3BPORT%201%26lt%3B%2Fdiv%26gt%3B%26lt%3Bdiv%26gt%3B%26lt%3Bbr%26gt%3B%26lt%3B%2Fdiv%26gt%3B%26lt%3Bdiv%26gt%3B(BRAM)%26lt%3B%2Fdiv%26gt%3B%22%20style%3D%22rounded%3D1%3BwhiteSpace%3Dwrap%3Bhtml%3D1%3B%22%20vertex%3D%221%22%20parent%3D%221%22%3E%3CmxGeometry%20x%3D%22810%22%20y%3D%22180%22%20width%3D%22120%22%20height%3D%22210%22%20as%3D%22geometry%22%2F%3E%3C%2FmxCell%3E%3C%2Froot%3E%3C%2FmxGraphModel%3E&lt;/span&gt;(BRAM)&lt;/div&gt;" style="rounded=1;whiteSpace=wrap;html=1;" vertex="1" parent="1">
          <mxGeometry x="1450" y="790" width="120" height="220" as="geometry" />
        </mxCell>
        <mxCell id="P8xasDIldp5LhnLOjuPv-63" value="MEM i&lt;div&gt;READ&lt;/div&gt;&lt;div&gt;PORT 1&lt;/div&gt;&lt;div&gt;&lt;br&gt;&lt;/div&gt;&lt;div&gt;&lt;span style=&quot;color: rgba(0, 0, 0, 0); font-family: monospace; font-size: 0px; text-align: start; text-wrap: nowrap; background-color: initial;&quot;&gt;%3CmxGraphModel%3E%3Croot%3E%3CmxCell%20id%3D%220%22%2F%3E%3CmxCell%20id%3D%221%22%20parent%3D%220%22%2F%3E%3CmxCell%20id%3D%222%22%20value%3D%22MEM%20i%26lt%3Bdiv%26gt%3BWRITE%26lt%3B%2Fdiv%26gt%3B%26lt%3Bdiv%26gt%3BPORT%201%26lt%3B%2Fdiv%26gt%3B%26lt%3Bdiv%26gt%3B%26lt%3Bbr%26gt%3B%26lt%3B%2Fdiv%26gt%3B%26lt%3Bdiv%26gt%3B(BRAM)%26lt%3B%2Fdiv%26gt%3B%22%20style%3D%22rounded%3D1%3BwhiteSpace%3Dwrap%3Bhtml%3D1%3B%22%20vertex%3D%221%22%20parent%3D%221%22%3E%3CmxGeometry%20x%3D%22810%22%20y%3D%22180%22%20width%3D%22120%22%20height%3D%22210%22%20as%3D%22geometry%22%2F%3E%3C%2FmxCell%3E%3C%2Froot%3E%3C%2FmxGraphModel%3E&lt;/span&gt;(BRAM)&lt;/div&gt;" style="rounded=1;whiteSpace=wrap;html=1;" vertex="1" parent="1">
          <mxGeometry x="1440" y="800" width="120" height="220" as="geometry" />
        </mxCell>
        <mxCell id="P8xasDIldp5LhnLOjuPv-64" value="MEM i&lt;div&gt;READ&lt;/div&gt;&lt;div&gt;PORT 1&lt;/div&gt;&lt;div&gt;&lt;br&gt;&lt;/div&gt;&lt;div&gt;&lt;span style=&quot;color: rgba(0, 0, 0, 0); font-family: monospace; font-size: 0px; text-align: start; text-wrap: nowrap; background-color: initial;&quot;&gt;%3CmxGraphModel%3E%3Croot%3E%3CmxCell%20id%3D%220%22%2F%3E%3CmxCell%20id%3D%221%22%20parent%3D%220%22%2F%3E%3CmxCell%20id%3D%222%22%20value%3D%22MEM%20i%26lt%3Bdiv%26gt%3BWRITE%26lt%3B%2Fdiv%26gt%3B%26lt%3Bdiv%26gt%3BPORT%201%26lt%3B%2Fdiv%26gt%3B%26lt%3Bdiv%26gt%3B%26lt%3Bbr%26gt%3B%26lt%3B%2Fdiv%26gt%3B%26lt%3Bdiv%26gt%3B(BRAM)%26lt%3B%2Fdiv%26gt%3B%22%20style%3D%22rounded%3D1%3BwhiteSpace%3Dwrap%3Bhtml%3D1%3B%22%20vertex%3D%221%22%20parent%3D%221%22%3E%3CmxGeometry%20x%3D%22810%22%20y%3D%22180%22%20width%3D%22120%22%20height%3D%22210%22%20as%3D%22geometry%22%2F%3E%3C%2FmxCell%3E%3C%2Froot%3E%3C%2FmxGraphModel%3E&lt;/span&gt;(BRAM)&lt;/div&gt;" style="rounded=1;whiteSpace=wrap;html=1;" vertex="1" parent="1">
          <mxGeometry x="1430" y="810" width="120" height="220" as="geometry" />
        </mxCell>
        <mxCell id="P8xasDIldp5LhnLOjuPv-65" value="MEM&lt;div&gt;WRITE&lt;/div&gt;&lt;div&gt;PORT 2&lt;/div&gt;&lt;div&gt;&lt;br&gt;&lt;/div&gt;&lt;div&gt;&lt;span style=&quot;color: rgba(0, 0, 0, 0); font-family: monospace; font-size: 0px; text-align: start; text-wrap: nowrap; background-color: initial;&quot;&gt;%3CmxGraphModel%3E%3Croot%3E%3CmxCell%20id%3D%220%22%2F%3E%3CmxCell%20id%3D%221%22%20parent%3D%220%22%2F%3E%3CmxCell%20id%3D%222%22%20value%3D%22MEM%20i%26lt%3Bdiv%26gt%3BWRITE%26lt%3B%2Fdiv%26gt%3B%26lt%3Bdiv%26gt%3BPORT%201%26lt%3B%2Fdiv%26gt%3B%26lt%3Bdiv%26gt%3B%26lt%3Bbr%26gt%3B%26lt%3B%2Fdiv%26gt%3B%26lt%3Bdiv%26gt%3B(BRAM)%26lt%3B%2Fdiv%26gt%3B%22%20style%3D%22rounded%3D1%3BwhiteSpace%3Dwrap%3Bhtml%3D1%3B%22%20vertex%3D%221%22%20parent%3D%221%22%3E%3CmxGeometry%20x%3D%22810%22%20y%3D%22180%22%20width%3D%22120%22%20height%3D%22210%22%20as%3D%22geometry%22%2F%3E%3C%2FmxCell%3E%3C%2Froot%3E%3C%2FmxGraphModel%3E&lt;/span&gt;(BRAM)&lt;/div&gt;" style="rounded=1;whiteSpace=wrap;html=1;" vertex="1" parent="1">
          <mxGeometry x="1420" y="820" width="120" height="220" as="geometry" />
        </mxCell>
        <mxCell id="P8xasDIldp5LhnLOjuPv-66" value="FLAG&lt;div&gt;MEMORY&lt;/div&gt;&lt;div&gt;READ&lt;/div&gt;&lt;div&gt;PORT 1&lt;/div&gt;&lt;div&gt;&lt;br&gt;&lt;/div&gt;&lt;div&gt;(REGISTER)&lt;/div&gt;" style="rounded=1;whiteSpace=wrap;html=1;" vertex="1" parent="1">
          <mxGeometry x="780" y="855" width="120" height="100" as="geometry" />
        </mxCell>
        <mxCell id="P8xasDIldp5LhnLOjuPv-67" value="FLAG&lt;div&gt;MEMORY&lt;/div&gt;&lt;div&gt;READ&lt;/div&gt;&lt;div&gt;PORT 1&lt;/div&gt;&lt;div&gt;&lt;br&gt;&lt;/div&gt;&lt;div&gt;(REGISTER)&lt;/div&gt;" style="rounded=1;whiteSpace=wrap;html=1;" vertex="1" parent="1">
          <mxGeometry x="770" y="865" width="120" height="100" as="geometry" />
        </mxCell>
        <mxCell id="P8xasDIldp5LhnLOjuPv-68" value="FLAG&lt;div&gt;MEMORY&lt;/div&gt;&lt;div&gt;READ&lt;/div&gt;&lt;div&gt;PORT 2&lt;/div&gt;&lt;div&gt;&lt;br&gt;&lt;/div&gt;&lt;div&gt;(REGISTER)&lt;/div&gt;" style="rounded=1;whiteSpace=wrap;html=1;" vertex="1" parent="1">
          <mxGeometry x="760" y="875" width="120" height="100" as="geometry" />
        </mxCell>
        <mxCell id="P8xasDIldp5LhnLOjuPv-69" value="FLAG&lt;div&gt;MEMORY&lt;/div&gt;&lt;div&gt;READ&lt;/div&gt;&lt;div&gt;PORT 1&lt;/div&gt;&lt;div&gt;&lt;br&gt;&lt;/div&gt;&lt;div&gt;(REGISTER)&lt;/div&gt;" style="rounded=1;whiteSpace=wrap;html=1;" vertex="1" parent="1">
          <mxGeometry x="450" y="1060" width="120" height="100" as="geometry" />
        </mxCell>
        <mxCell id="P8xasDIldp5LhnLOjuPv-70" value="FLAG&lt;div&gt;MEMORY&lt;/div&gt;&lt;div&gt;READ&lt;/div&gt;&lt;div&gt;PORT 1&lt;/div&gt;&lt;div&gt;&lt;br&gt;&lt;/div&gt;&lt;div&gt;(REGISTER)&lt;/div&gt;" style="rounded=1;whiteSpace=wrap;html=1;" vertex="1" parent="1">
          <mxGeometry x="440" y="1070" width="120" height="100" as="geometry" />
        </mxCell>
        <mxCell id="P8xasDIldp5LhnLOjuPv-71" value="FLAG&lt;div&gt;MEMORY&lt;/div&gt;&lt;div&gt;READ&lt;/div&gt;&lt;div&gt;PORT 1&lt;/div&gt;&lt;div&gt;&lt;br&gt;&lt;/div&gt;&lt;div&gt;(REGISTER)&lt;/div&gt;" style="rounded=1;whiteSpace=wrap;html=1;" vertex="1" parent="1">
          <mxGeometry x="430" y="1080" width="120" height="100" as="geometry" />
        </mxCell>
        <mxCell id="P8xasDIldp5LhnLOjuPv-72" value="FLAG&lt;div&gt;MEMORY&lt;/div&gt;&lt;div&gt;READ&lt;/div&gt;&lt;div&gt;PORT 1&lt;/div&gt;&lt;div&gt;&lt;br&gt;&lt;/div&gt;&lt;div&gt;(REGISTER)&lt;/div&gt;" style="rounded=1;whiteSpace=wrap;html=1;" vertex="1" parent="1">
          <mxGeometry x="420" y="1090" width="120" height="100" as="geometry" />
        </mxCell>
        <mxCell id="P8xasDIldp5LhnLOjuPv-73" value="FLAG&lt;div&gt;MEMORY&lt;/div&gt;&lt;div&gt;READ&lt;/div&gt;&lt;div&gt;PORT 1&lt;/div&gt;&lt;div&gt;&lt;br&gt;&lt;/div&gt;&lt;div&gt;(REGISTER)&lt;/div&gt;" style="rounded=1;whiteSpace=wrap;html=1;" vertex="1" parent="1">
          <mxGeometry x="1450" y="1060" width="120" height="100" as="geometry" />
        </mxCell>
        <mxCell id="P8xasDIldp5LhnLOjuPv-74" value="FLAG&lt;div&gt;MEMORY&lt;/div&gt;&lt;div&gt;READ&lt;/div&gt;&lt;div&gt;PORT 1&lt;/div&gt;&lt;div&gt;&lt;br&gt;&lt;/div&gt;&lt;div&gt;(REGISTER)&lt;/div&gt;" style="rounded=1;whiteSpace=wrap;html=1;" vertex="1" parent="1">
          <mxGeometry x="1440" y="1070" width="120" height="100" as="geometry" />
        </mxCell>
        <mxCell id="P8xasDIldp5LhnLOjuPv-75" value="FLAG&lt;div&gt;MEMORY&lt;/div&gt;&lt;div&gt;READ&lt;/div&gt;&lt;div&gt;PORT 1&lt;/div&gt;&lt;div&gt;&lt;br&gt;&lt;/div&gt;&lt;div&gt;(REGISTER)&lt;/div&gt;" style="rounded=1;whiteSpace=wrap;html=1;" vertex="1" parent="1">
          <mxGeometry x="1430" y="1080" width="120" height="100" as="geometry" />
        </mxCell>
        <mxCell id="P8xasDIldp5LhnLOjuPv-76" value="FLAG&lt;div&gt;MEMORY&lt;/div&gt;&lt;div&gt;WRITE&lt;/div&gt;&lt;div&gt;PORT 1&lt;/div&gt;&lt;div&gt;&lt;br&gt;&lt;/div&gt;&lt;div&gt;(REGISTER)&lt;/div&gt;" style="rounded=1;whiteSpace=wrap;html=1;" vertex="1" parent="1">
          <mxGeometry x="1420" y="1090" width="120" height="100" as="geometry" />
        </mxCell>
        <mxCell id="P8xasDIldp5LhnLOjuPv-77" value="HASH" style="rounded=1;whiteSpace=wrap;html=1;" vertex="1" parent="1">
          <mxGeometry x="630" y="870" width="80" height="80" as="geometry" />
        </mxCell>
        <mxCell id="P8xasDIldp5LhnLOjuPv-78" value="HASH" style="rounded=1;whiteSpace=wrap;html=1;" vertex="1" parent="1">
          <mxGeometry x="620" y="880" width="80" height="80" as="geometry" />
        </mxCell>
        <mxCell id="P8xasDIldp5LhnLOjuPv-79" value="HASH" style="rounded=1;whiteSpace=wrap;html=1;" vertex="1" parent="1">
          <mxGeometry x="610" y="890" width="80" height="80" as="geometry" />
        </mxCell>
        <mxCell id="P8xasDIldp5LhnLOjuPv-80" value="" style="endArrow=classic;html=1;rounded=0;" edge="1" parent="1">
          <mxGeometry width="50" height="50" relative="1" as="geometry">
            <mxPoint x="540" y="929.8" as="sourcePoint" />
            <mxPoint x="610" y="929.8" as="targetPoint" />
          </mxGeometry>
        </mxCell>
        <mxCell id="P8xasDIldp5LhnLOjuPv-81" value="" style="endArrow=none;html=1;rounded=0;" edge="1" parent="1">
          <mxGeometry width="50" height="50" relative="1" as="geometry">
            <mxPoint x="550" y="919.8" as="sourcePoint" />
            <mxPoint x="610" y="920" as="targetPoint" />
          </mxGeometry>
        </mxCell>
        <mxCell id="P8xasDIldp5LhnLOjuPv-82" value="" style="endArrow=none;html=1;rounded=0;" edge="1" parent="1">
          <mxGeometry width="50" height="50" relative="1" as="geometry">
            <mxPoint x="560" y="909.8" as="sourcePoint" />
            <mxPoint x="610" y="910" as="targetPoint" />
          </mxGeometry>
        </mxCell>
        <mxCell id="P8xasDIldp5LhnLOjuPv-83" value="" style="endArrow=none;html=1;rounded=0;" edge="1" parent="1">
          <mxGeometry width="50" height="50" relative="1" as="geometry">
            <mxPoint x="340" y="920" as="sourcePoint" />
            <mxPoint x="420" y="919.9100000000001" as="targetPoint" />
          </mxGeometry>
        </mxCell>
        <mxCell id="P8xasDIldp5LhnLOjuPv-84" value="" style="endArrow=classic;html=1;rounded=0;" edge="1" parent="1">
          <mxGeometry width="50" height="50" relative="1" as="geometry">
            <mxPoint x="330" y="930" as="sourcePoint" />
            <mxPoint x="420" y="929.71" as="targetPoint" />
          </mxGeometry>
        </mxCell>
        <mxCell id="P8xasDIldp5LhnLOjuPv-85" value="" style="endArrow=none;html=1;rounded=0;" edge="1" parent="1">
          <mxGeometry width="50" height="50" relative="1" as="geometry">
            <mxPoint x="360" y="900" as="sourcePoint" />
            <mxPoint x="420" y="899.71" as="targetPoint" />
          </mxGeometry>
        </mxCell>
        <mxCell id="P8xasDIldp5LhnLOjuPv-86" value="" style="endArrow=none;html=1;rounded=0;" edge="1" parent="1">
          <mxGeometry width="50" height="50" relative="1" as="geometry">
            <mxPoint x="350" y="910" as="sourcePoint" />
            <mxPoint x="420" y="909.71" as="targetPoint" />
          </mxGeometry>
        </mxCell>
        <mxCell id="P8xasDIldp5LhnLOjuPv-87" value="" style="endArrow=classic;html=1;rounded=0;" edge="1" parent="1">
          <mxGeometry width="50" height="50" relative="1" as="geometry">
            <mxPoint x="690" y="929.76" as="sourcePoint" />
            <mxPoint x="760" y="929.76" as="targetPoint" />
          </mxGeometry>
        </mxCell>
        <mxCell id="P8xasDIldp5LhnLOjuPv-88" value="" style="endArrow=none;html=1;rounded=0;" edge="1" parent="1">
          <mxGeometry width="50" height="50" relative="1" as="geometry">
            <mxPoint x="700" y="919.76" as="sourcePoint" />
            <mxPoint x="760" y="919.96" as="targetPoint" />
          </mxGeometry>
        </mxCell>
        <mxCell id="P8xasDIldp5LhnLOjuPv-89" value="" style="endArrow=none;html=1;rounded=0;" edge="1" parent="1">
          <mxGeometry width="50" height="50" relative="1" as="geometry">
            <mxPoint x="710" y="909.76" as="sourcePoint" />
            <mxPoint x="760" y="909.96" as="targetPoint" />
          </mxGeometry>
        </mxCell>
        <mxCell id="P8xasDIldp5LhnLOjuPv-90" value="" style="endArrow=classic;html=1;rounded=0;" edge="1" parent="1">
          <mxGeometry width="50" height="50" relative="1" as="geometry">
            <mxPoint x="880" y="940.0000000000001" as="sourcePoint" />
            <mxPoint x="960" y="940.0000000000001" as="targetPoint" />
          </mxGeometry>
        </mxCell>
        <mxCell id="P8xasDIldp5LhnLOjuPv-91" value="" style="endArrow=classic;html=1;rounded=0;" edge="1" parent="1">
          <mxGeometry width="50" height="50" relative="1" as="geometry">
            <mxPoint x="890" y="929.7900000000001" as="sourcePoint" />
            <mxPoint x="960" y="929.7900000000001" as="targetPoint" />
          </mxGeometry>
        </mxCell>
        <mxCell id="P8xasDIldp5LhnLOjuPv-92" value="" style="endArrow=classic;html=1;rounded=0;" edge="1" parent="1">
          <mxGeometry width="50" height="50" relative="1" as="geometry">
            <mxPoint x="900" y="919.3700000000001" as="sourcePoint" />
            <mxPoint x="960" y="919.3700000000001" as="targetPoint" />
          </mxGeometry>
        </mxCell>
        <mxCell id="P8xasDIldp5LhnLOjuPv-93" value="" style="endArrow=classic;html=1;rounded=0;edgeStyle=orthogonalEdgeStyle;entryX=0.176;entryY=1.001;entryDx=0;entryDy=0;entryPerimeter=0;" edge="1" parent="1">
          <mxGeometry width="50" height="50" relative="1" as="geometry">
            <mxPoint x="570" y="1110" as="sourcePoint" />
            <mxPoint x="979.3600000000001" y="970" as="targetPoint" />
          </mxGeometry>
        </mxCell>
        <mxCell id="P8xasDIldp5LhnLOjuPv-94" value="" style="endArrow=classic;html=1;rounded=0;edgeStyle=orthogonalEdgeStyle;" edge="1" parent="1">
          <mxGeometry width="50" height="50" relative="1" as="geometry">
            <mxPoint x="560" y="1120" as="sourcePoint" />
            <mxPoint x="990" y="970" as="targetPoint" />
          </mxGeometry>
        </mxCell>
        <mxCell id="P8xasDIldp5LhnLOjuPv-95" value="" style="endArrow=classic;html=1;rounded=0;edgeStyle=orthogonalEdgeStyle;" edge="1" parent="1">
          <mxGeometry width="50" height="50" relative="1" as="geometry">
            <mxPoint x="550" y="1130" as="sourcePoint" />
            <mxPoint x="1000" y="970" as="targetPoint" />
          </mxGeometry>
        </mxCell>
        <mxCell id="P8xasDIldp5LhnLOjuPv-96" value="" style="endArrow=classic;html=1;rounded=0;edgeStyle=orthogonalEdgeStyle;" edge="1" parent="1">
          <mxGeometry width="50" height="50" relative="1" as="geometry">
            <mxPoint x="540" y="1140" as="sourcePoint" />
            <mxPoint x="1010" y="970" as="targetPoint" />
          </mxGeometry>
        </mxCell>
        <mxCell id="P8xasDIldp5LhnLOjuPv-97" value="" style="endArrow=none;html=1;rounded=0;startArrow=classic;startFill=1;" edge="1" parent="1">
          <mxGeometry width="50" height="50" relative="1" as="geometry">
            <mxPoint x="1420" y="1140" as="sourcePoint" />
            <mxPoint x="1320" y="970" as="targetPoint" />
            <Array as="points">
              <mxPoint x="1320" y="1140" />
            </Array>
          </mxGeometry>
        </mxCell>
        <mxCell id="P8xasDIldp5LhnLOjuPv-98" value="" style="endArrow=classic;html=1;rounded=0;" edge="1" parent="1">
          <mxGeometry width="50" height="50" relative="1" as="geometry">
            <mxPoint x="1380" y="929.6600000000001" as="sourcePoint" />
            <mxPoint x="1420" y="929.6600000000001" as="targetPoint" />
          </mxGeometry>
        </mxCell>
        <mxCell id="P8xasDIldp5LhnLOjuPv-99" value="" style="endArrow=none;html=1;rounded=0;" edge="1" parent="1">
          <mxGeometry width="50" height="50" relative="1" as="geometry">
            <mxPoint x="1380" y="919.6600000000001" as="sourcePoint" />
            <mxPoint x="1420" y="919.8599999999999" as="targetPoint" />
          </mxGeometry>
        </mxCell>
        <mxCell id="P8xasDIldp5LhnLOjuPv-100" value="" style="endArrow=none;html=1;rounded=0;" edge="1" parent="1">
          <mxGeometry width="50" height="50" relative="1" as="geometry">
            <mxPoint x="1380" y="909.6600000000001" as="sourcePoint" />
            <mxPoint x="1420" y="909.8599999999999" as="targetPoint" />
          </mxGeometry>
        </mxCell>
        <mxCell id="P8xasDIldp5LhnLOjuPv-101" value="" style="endArrow=none;html=1;rounded=0;" edge="1" parent="1">
          <mxGeometry width="50" height="50" relative="1" as="geometry">
            <mxPoint x="1380" y="899.6600000000001" as="sourcePoint" />
            <mxPoint x="1420" y="899.8599999999999" as="targetPoint" />
          </mxGeometry>
        </mxCell>
        <mxCell id="P8xasDIldp5LhnLOjuPv-102" value="" style="endArrow=none;html=1;rounded=0;startArrow=none;startFill=0;" edge="1" parent="1">
          <mxGeometry width="50" height="50" relative="1" as="geometry">
            <mxPoint x="1420" y="1130" as="sourcePoint" />
            <mxPoint x="1330" y="970" as="targetPoint" />
            <Array as="points">
              <mxPoint x="1330" y="1130" />
            </Array>
          </mxGeometry>
        </mxCell>
        <mxCell id="P8xasDIldp5LhnLOjuPv-103" value="" style="endArrow=none;html=1;rounded=0;startArrow=none;startFill=0;" edge="1" parent="1">
          <mxGeometry width="50" height="50" relative="1" as="geometry">
            <mxPoint x="1420" y="1120" as="sourcePoint" />
            <mxPoint x="1340" y="970" as="targetPoint" />
            <Array as="points">
              <mxPoint x="1340" y="1120" />
            </Array>
          </mxGeometry>
        </mxCell>
        <mxCell id="P8xasDIldp5LhnLOjuPv-104" value="" style="endArrow=none;html=1;rounded=0;startArrow=none;startFill=0;" edge="1" parent="1">
          <mxGeometry width="50" height="50" relative="1" as="geometry">
            <mxPoint x="1420" y="1110" as="sourcePoint" />
            <mxPoint x="1350" y="970" as="targetPoint" />
            <Array as="points">
              <mxPoint x="1350" y="1110" />
            </Array>
          </mxGeometry>
        </mxCell>
        <mxCell id="P8xasDIldp5LhnLOjuPv-105" value="" style="endArrow=classic;html=1;rounded=0;" edge="1" parent="1">
          <mxGeometry width="50" height="50" relative="1" as="geometry">
            <mxPoint x="370" y="930" as="sourcePoint" />
            <mxPoint x="420" y="1140" as="targetPoint" />
            <Array as="points">
              <mxPoint x="370" y="1140" />
            </Array>
          </mxGeometry>
        </mxCell>
        <mxCell id="P8xasDIldp5LhnLOjuPv-106" value="" style="endArrow=none;html=1;rounded=0;endFill=0;startArrow=none;startFill=0;jumpStyle=arc;" edge="1" parent="1">
          <mxGeometry width="50" height="50" relative="1" as="geometry">
            <mxPoint x="380" y="920" as="sourcePoint" />
            <mxPoint x="420" y="1130" as="targetPoint" />
            <Array as="points">
              <mxPoint x="380" y="1130" />
            </Array>
          </mxGeometry>
        </mxCell>
        <mxCell id="P8xasDIldp5LhnLOjuPv-107" value="" style="endArrow=none;html=1;rounded=0;endFill=0;startArrow=none;startFill=0;jumpStyle=arc;" edge="1" parent="1">
          <mxGeometry width="50" height="50" relative="1" as="geometry">
            <mxPoint x="390" y="910" as="sourcePoint" />
            <mxPoint x="420" y="1120" as="targetPoint" />
            <Array as="points">
              <mxPoint x="390" y="1120" />
            </Array>
          </mxGeometry>
        </mxCell>
        <mxCell id="P8xasDIldp5LhnLOjuPv-108" value="" style="endArrow=none;html=1;rounded=0;endFill=0;startArrow=none;startFill=0;jumpStyle=arc;" edge="1" parent="1">
          <mxGeometry width="50" height="50" relative="1" as="geometry">
            <mxPoint x="400" y="900" as="sourcePoint" />
            <mxPoint x="420" y="1110" as="targetPoint" />
            <Array as="points">
              <mxPoint x="400" y="1110" />
            </Array>
          </mxGeometry>
        </mxCell>
        <mxCell id="P8xasDIldp5LhnLOjuPv-109" value="KEY" style="text;html=1;align=center;verticalAlign=middle;whiteSpace=wrap;rounded=0;" vertex="1" parent="1">
          <mxGeometry x="280" y="740" width="50" height="40" as="geometry" />
        </mxCell>
        <mxCell id="P8xasDIldp5LhnLOjuPv-110" value="" style="endArrow=none;html=1;rounded=0;" edge="1" parent="1">
          <mxGeometry width="50" height="50" relative="1" as="geometry">
            <mxPoint x="289" y="841" as="sourcePoint" />
            <mxPoint x="320" y="810" as="targetPoint" />
          </mxGeometry>
        </mxCell>
        <mxCell id="P8xasDIldp5LhnLOjuPv-111" value="" style="endArrow=classic;html=1;rounded=0;" edge="1" parent="1">
          <mxGeometry width="50" height="50" relative="1" as="geometry">
            <mxPoint x="289.67" y="840" as="sourcePoint" />
            <mxPoint x="289.67" y="890" as="targetPoint" />
          </mxGeometry>
        </mxCell>
        <mxCell id="P8xasDIldp5LhnLOjuPv-112" value="" style="endArrow=classic;html=1;rounded=0;" edge="1" parent="1">
          <mxGeometry width="50" height="50" relative="1" as="geometry">
            <mxPoint x="299.8299999999999" y="830" as="sourcePoint" />
            <mxPoint x="299.8299999999999" y="880" as="targetPoint" />
          </mxGeometry>
        </mxCell>
        <mxCell id="P8xasDIldp5LhnLOjuPv-113" value="" style="endArrow=classic;html=1;rounded=0;" edge="1" parent="1">
          <mxGeometry width="50" height="50" relative="1" as="geometry">
            <mxPoint x="309.8299999999999" y="820" as="sourcePoint" />
            <mxPoint x="309.8299999999999" y="870" as="targetPoint" />
          </mxGeometry>
        </mxCell>
        <mxCell id="P8xasDIldp5LhnLOjuPv-114" value="" style="endArrow=classic;html=1;rounded=0;" edge="1" parent="1">
          <mxGeometry width="50" height="50" relative="1" as="geometry">
            <mxPoint x="319.8299999999999" y="810" as="sourcePoint" />
            <mxPoint x="319.8299999999999" y="860" as="targetPoint" />
          </mxGeometry>
        </mxCell>
        <mxCell id="P8xasDIldp5LhnLOjuPv-115" value="" style="endArrow=none;html=1;rounded=0;entryX=0.5;entryY=1;entryDx=0;entryDy=0;" edge="1" parent="1" target="P8xasDIldp5LhnLOjuPv-120">
          <mxGeometry width="50" height="50" relative="1" as="geometry">
            <mxPoint x="305" y="825" as="sourcePoint" />
            <mxPoint x="305" y="772" as="targetPoint" />
          </mxGeometry>
        </mxCell>
        <mxCell id="P8xasDIldp5LhnLOjuPv-116" value="" style="endArrow=classic;html=1;rounded=0;" edge="1" parent="1">
          <mxGeometry width="50" height="50" relative="1" as="geometry">
            <mxPoint x="330" y="760" as="sourcePoint" />
            <mxPoint x="980" y="850" as="targetPoint" />
            <Array as="points">
              <mxPoint x="360" y="760" />
              <mxPoint x="360" y="640" />
              <mxPoint x="470" y="640" />
              <mxPoint x="580" y="640" />
              <mxPoint x="760" y="640" />
              <mxPoint x="760" y="720" />
              <mxPoint x="760" y="760" />
              <mxPoint x="980" y="760" />
            </Array>
          </mxGeometry>
        </mxCell>
        <mxCell id="P8xasDIldp5LhnLOjuPv-117" value="DATA" style="text;html=1;align=center;verticalAlign=middle;whiteSpace=wrap;rounded=0;strokeColor=default;" vertex="1" parent="1">
          <mxGeometry x="1260" y="710" width="60" height="30" as="geometry" />
        </mxCell>
        <mxCell id="P8xasDIldp5LhnLOjuPv-118" style="edgeStyle=orthogonalEdgeStyle;rounded=0;orthogonalLoop=1;jettySize=auto;html=1;" edge="1" parent="1" source="P8xasDIldp5LhnLOjuPv-119">
          <mxGeometry relative="1" as="geometry">
            <mxPoint x="1340" y="850" as="targetPoint" />
            <Array as="points">
              <mxPoint x="1370" y="795" />
              <mxPoint x="1340" y="795" />
              <mxPoint x="1340" y="850" />
            </Array>
          </mxGeometry>
        </mxCell>
        <mxCell id="P8xasDIldp5LhnLOjuPv-119" value="READ/WRITE/&lt;div&gt;DELTE&lt;/div&gt;" style="text;html=1;align=center;verticalAlign=middle;whiteSpace=wrap;rounded=0;strokeColor=default;" vertex="1" parent="1">
          <mxGeometry x="1330" y="710" width="80" height="30" as="geometry" />
        </mxCell>
        <mxCell id="P8xasDIldp5LhnLOjuPv-120" value="" style="rounded=0;whiteSpace=wrap;html=1;fillColor=none;" vertex="1" parent="1">
          <mxGeometry x="280" y="750" width="50" height="20" as="geometry" />
        </mxCell>
        <mxCell id="P8xasDIldp5LhnLOjuPv-121" style="edgeStyle=orthogonalEdgeStyle;rounded=0;orthogonalLoop=1;jettySize=auto;html=1;" edge="1" parent="1" source="P8xasDIldp5LhnLOjuPv-117">
          <mxGeometry relative="1" as="geometry">
            <mxPoint x="1320" y="850" as="targetPoint" />
            <Array as="points">
              <mxPoint x="1290" y="795" />
              <mxPoint x="1320" y="795" />
              <mxPoint x="1320" y="850" />
            </Array>
          </mxGeometry>
        </mxCell>
        <mxCell id="P8xasDIldp5LhnLOjuPv-122" value="&lt;div&gt;CAM&lt;/div&gt;&lt;div&gt;READ&lt;/div&gt;&lt;div&gt;PORT 1&lt;/div&gt;" style="rounded=1;whiteSpace=wrap;html=1;" vertex="1" parent="1">
          <mxGeometry x="450" y="660" width="80" height="80" as="geometry" />
        </mxCell>
        <mxCell id="P8xasDIldp5LhnLOjuPv-125" value="&lt;div&gt;CAM&lt;/div&gt;&lt;div&gt;&lt;span style=&quot;background-color: initial;&quot;&gt;WRITE&lt;/span&gt;&lt;br&gt;&lt;/div&gt;&lt;div&gt;PORT 2&lt;/div&gt;" style="rounded=1;whiteSpace=wrap;html=1;" vertex="1" parent="1">
          <mxGeometry x="1490" y="710" width="75" height="75" as="geometry" />
        </mxCell>
        <mxCell id="P8xasDIldp5LhnLOjuPv-126" value="" style="endArrow=classic;html=1;rounded=0;entryX=0;entryY=0.5;entryDx=0;entryDy=0;endFill=1;" edge="1" parent="1" target="P8xasDIldp5LhnLOjuPv-125">
          <mxGeometry width="50" height="50" relative="1" as="geometry">
            <mxPoint x="1380" y="890" as="sourcePoint" />
            <mxPoint x="1400" y="750" as="targetPoint" />
            <Array as="points">
              <mxPoint x="1400" y="890" />
              <mxPoint x="1400" y="748" />
            </Array>
          </mxGeometry>
        </mxCell>
        <mxCell id="P8xasDIldp5LhnLOjuPv-127" value="FORWARDER&lt;div&gt;UNIT&lt;/div&gt;" style="rounded=1;whiteSpace=wrap;html=1;" vertex="1" parent="1">
          <mxGeometry x="960" y="850" width="120" height="120" as="geometry" />
        </mxCell>
        <mxCell id="P8xasDIldp5LhnLOjuPv-128" value="HASH" style="rounded=1;whiteSpace=wrap;html=1;" vertex="1" parent="1">
          <mxGeometry x="1100" y="750" width="80" height="80" as="geometry" />
        </mxCell>
        <mxCell id="P8xasDIldp5LhnLOjuPv-129" value="HASH" style="rounded=1;whiteSpace=wrap;html=1;" vertex="1" parent="1">
          <mxGeometry x="1090" y="760" width="80" height="80" as="geometry" />
        </mxCell>
        <mxCell id="P8xasDIldp5LhnLOjuPv-131" value="FLAG&lt;div&gt;MEMORY&lt;/div&gt;&lt;div&gt;READ&lt;/div&gt;&lt;div&gt;PORT 3&lt;/div&gt;&lt;div&gt;&lt;br&gt;&lt;/div&gt;&lt;div&gt;(REGISTER)&lt;/div&gt;" style="rounded=1;whiteSpace=wrap;html=1;" vertex="1" parent="1">
          <mxGeometry x="970" y="640" width="120" height="100" as="geometry" />
        </mxCell>
        <mxCell id="P8xasDIldp5LhnLOjuPv-132" value="FLAG&lt;div&gt;MEMORY&lt;/div&gt;&lt;div&gt;READ&lt;/div&gt;&lt;div&gt;PORT 3&lt;/div&gt;&lt;div&gt;&lt;br&gt;&lt;/div&gt;&lt;div&gt;(REGISTER)&lt;/div&gt;" style="rounded=1;whiteSpace=wrap;html=1;" vertex="1" parent="1">
          <mxGeometry x="960" y="650" width="120" height="100" as="geometry" />
        </mxCell>
        <mxCell id="P8xasDIldp5LhnLOjuPv-135" value="CLOCK CYCLE" style="text;html=1;align=center;verticalAlign=middle;whiteSpace=wrap;rounded=0;" vertex="1" parent="1">
          <mxGeometry x="370" y="606" width="140" height="30" as="geometry" />
        </mxCell>
        <mxCell id="P8xasDIldp5LhnLOjuPv-139" value="CLOCK CYCLE" style="text;html=1;align=center;verticalAlign=middle;whiteSpace=wrap;rounded=0;" vertex="1" parent="1">
          <mxGeometry x="730" y="605" width="140" height="30" as="geometry" />
        </mxCell>
        <mxCell id="P8xasDIldp5LhnLOjuPv-140" value="" style="endArrow=classic;html=1;rounded=0;" edge="1" parent="1">
          <mxGeometry width="50" height="50" relative="1" as="geometry">
            <mxPoint x="1080" y="890" as="sourcePoint" />
            <mxPoint x="1130" y="840" as="targetPoint" />
            <Array as="points">
              <mxPoint x="1130" y="890" />
            </Array>
          </mxGeometry>
        </mxCell>
        <mxCell id="P8xasDIldp5LhnLOjuPv-142" value="" style="endArrow=none;html=1;rounded=0;endFill=0;" edge="1" parent="1">
          <mxGeometry width="50" height="50" relative="1" as="geometry">
            <mxPoint x="1080" y="900" as="sourcePoint" />
            <mxPoint x="1140" y="840" as="targetPoint" />
            <Array as="points">
              <mxPoint x="1140" y="900" />
            </Array>
          </mxGeometry>
        </mxCell>
        <mxCell id="P8xasDIldp5LhnLOjuPv-143" value="" style="endArrow=classic;html=1;rounded=0;" edge="1" parent="1">
          <mxGeometry width="50" height="50" relative="1" as="geometry">
            <mxPoint x="1130.0000000000005" y="760" as="sourcePoint" />
            <mxPoint x="1080.0000000000005" y="710" as="targetPoint" />
            <Array as="points">
              <mxPoint x="1130.0000000000005" y="710" />
            </Array>
          </mxGeometry>
        </mxCell>
        <mxCell id="P8xasDIldp5LhnLOjuPv-144" value="" style="endArrow=classic;html=1;rounded=0;" edge="1" parent="1">
          <mxGeometry width="50" height="50" relative="1" as="geometry">
            <mxPoint x="1140.0000000000005" y="750" as="sourcePoint" />
            <mxPoint x="1090.0000000000005" y="700" as="targetPoint" />
            <Array as="points">
              <mxPoint x="1140.0000000000005" y="700" />
            </Array>
          </mxGeometry>
        </mxCell>
        <mxCell id="P8xasDIldp5LhnLOjuPv-145" value="" style="endArrow=classic;html=1;rounded=0;" edge="1" parent="1">
          <mxGeometry width="50" height="50" relative="1" as="geometry">
            <mxPoint x="1019.57" y="749.42" as="sourcePoint" />
            <mxPoint x="1019.57" y="850" as="targetPoint" />
          </mxGeometry>
        </mxCell>
        <mxCell id="P8xasDIldp5LhnLOjuPv-146" value="" style="endArrow=classic;html=1;rounded=0;" edge="1" parent="1">
          <mxGeometry width="50" height="50" relative="1" as="geometry">
            <mxPoint x="1029.57" y="750" as="sourcePoint" />
            <mxPoint x="1029.57" y="850.58" as="targetPoint" />
          </mxGeometry>
        </mxCell>
        <mxCell id="P8xasDIldp5LhnLOjuPv-147" value="" style="endArrow=classic;html=1;rounded=0;" edge="1" parent="1">
          <mxGeometry width="50" height="50" relative="1" as="geometry">
            <mxPoint x="360" y="699.7" as="sourcePoint" />
            <mxPoint x="450" y="699.7" as="targetPoint" />
          </mxGeometry>
        </mxCell>
        <mxCell id="P8xasDIldp5LhnLOjuPv-148" value="" style="endArrow=classic;html=1;rounded=0;" edge="1" parent="1">
          <mxGeometry width="50" height="50" relative="1" as="geometry">
            <mxPoint x="530" y="700" as="sourcePoint" />
            <mxPoint x="970" y="850" as="targetPoint" />
            <Array as="points">
              <mxPoint x="750" y="700" />
              <mxPoint x="750" y="770" />
              <mxPoint x="970" y="770" />
            </Array>
          </mxGeometry>
        </mxCell>
        <mxCell id="P8xasDIldp5LhnLOjuPv-149" value="" style="endArrow=classic;html=1;rounded=0;jumpStyle=arc;" edge="1" parent="1">
          <mxGeometry width="50" height="50" relative="1" as="geometry">
            <mxPoint x="580" y="930" as="sourcePoint" />
            <mxPoint x="960" y="910" as="targetPoint" />
            <Array as="points">
              <mxPoint x="580" y="830" />
              <mxPoint x="910" y="830" />
              <mxPoint x="910" y="910" />
            </Array>
          </mxGeometry>
        </mxCell>
        <mxCell id="P8xasDIldp5LhnLOjuPv-150" value="" style="endArrow=classic;html=1;rounded=0;jumpStyle=arc;" edge="1" parent="1">
          <mxGeometry width="50" height="50" relative="1" as="geometry">
            <mxPoint x="590" y="920" as="sourcePoint" />
            <mxPoint x="960" y="900" as="targetPoint" />
            <Array as="points">
              <mxPoint x="590" y="820" />
              <mxPoint x="920" y="820" />
              <mxPoint x="920" y="900" />
            </Array>
          </mxGeometry>
        </mxCell>
        <mxCell id="P8xasDIldp5LhnLOjuPv-151" value="" style="endArrow=classic;html=1;rounded=0;jumpStyle=arc;" edge="1" parent="1">
          <mxGeometry width="50" height="50" relative="1" as="geometry">
            <mxPoint x="600" y="910" as="sourcePoint" />
            <mxPoint x="960" y="890" as="targetPoint" />
            <Array as="points">
              <mxPoint x="600" y="810" />
              <mxPoint x="930" y="810" />
              <mxPoint x="930" y="890" />
            </Array>
          </mxGeometry>
        </mxCell>
        <mxCell id="P8xasDIldp5LhnLOjuPv-137" value="" style="endArrow=none;html=1;rounded=0;jumpStyle=gap;" edge="1" parent="1">
          <mxGeometry width="50" height="50" relative="1" as="geometry">
            <mxPoint x="940" y="1210" as="sourcePoint" />
            <mxPoint x="940" y="560" as="targetPoint" />
          </mxGeometry>
        </mxCell>
        <mxCell id="P8xasDIldp5LhnLOjuPv-152" value="" style="endArrow=classic;html=1;rounded=0;strokeWidth=3;" edge="1" parent="1">
          <mxGeometry width="50" height="50" relative="1" as="geometry">
            <mxPoint x="1080" y="919.52" as="sourcePoint" />
            <mxPoint x="1260" y="919.52" as="targetPoint" />
          </mxGeometry>
        </mxCell>
        <mxCell id="P8xasDIldp5LhnLOjuPv-153" value="" style="endArrow=none;html=1;rounded=0;jumpStyle=gap;" edge="1" parent="1">
          <mxGeometry width="50" height="50" relative="1" as="geometry">
            <mxPoint x="575" y="1200" as="sourcePoint" />
            <mxPoint x="575" y="550" as="targetPoint" />
          </mxGeometry>
        </mxCell>
      </root>
    </mxGraphModel>
  </diagram>
</mxfile>
